
<svg xmlns="http://www.w3.org/2000/svg" width="162.425" height="162.425"><path d="M55.836 144.403c0 .48.083.797.246.957a.784.784 0 0 0 .555.237.707.707 0 0 0 .613-.319c.148-.213.221-.619.221-1.218h2.648c-.022 1.09-.3 1.91-.834 2.458-.534.551-1.411.827-2.632.827-.708 0-1.302-.078-1.78-.237s-.868-.42-1.16-.785c-.295-.365-.505-.842-.63-1.43-.126-.59-.189-1.302-.189-2.14 0-.85.07-1.57.213-2.158.142-.588.364-1.069.67-1.44a2.625 2.625 0 0 1 1.169-.806c.475-.17 1.043-.254 1.707-.254.59 0 1.104.07 1.546.213.44.14.81.377 1.111.71.299.333.522.768.67 1.307.147.54.221 1.211.221 2.018v.898h-4.365v1.162zm1.447-4.183c-.115-.219-.33-.327-.646-.327-.304 0-.514.108-.63.327-.113.216-.171.56-.171 1.027v.395h1.618v-.395c0-.467-.056-.81-.17-1.027m11.218-1.897v8.696c0 .576-.094 1.066-.286 1.468-.19.405-.451.725-.783.965a3.187 3.187 0 0 1-1.17.516 6.446 6.446 0 0 1-1.454.156c-.469 0-.91-.037-1.324-.107-.414-.07-.776-.2-1.087-.385a1.995 1.995 0 0 1-.735-.76c-.18-.322-.275-.732-.285-1.234h2.646c0 .22.065.388.197.507.13.12.31.18.538.18.11 0 .22-.011.327-.033a.584.584 0 0 0 .287-.146.858.858 0 0 0 .204-.327c.054-.144.082-.338.082-.588v-1.634h-.033c-.186.511-.463.859-.834 1.045-.37.185-.756.279-1.16.279-.295 0-.593-.055-.899-.166-.304-.108-.583-.32-.834-.635-.25-.316-.455-.762-.612-1.334-.159-.572-.238-1.314-.238-2.23 0-.85.063-1.56.188-2.133.125-.57.305-1.03.54-1.373.235-.342.52-.588.859-.735.337-.146.718-.22 1.143-.22.413 0 .802.11 1.16.326.36.219.622.596.786 1.127h.032v-1.225h2.745zm-4.453 5.32c.038.29.093.516.163.678.072.164.159.274.262.326a.78.78 0 0 0 .367.083.746.746 0 0 0 .352-.083c.102-.052.19-.162.263-.326.07-.162.12-.388.153-.678.034-.288.05-.667.05-1.136a10 10 0 0 0-.05-1.12 2.48 2.48 0 0 0-.153-.677c-.074-.164-.16-.275-.263-.336a.707.707 0 0 0-.352-.09.739.739 0 0 0-.367.09c-.103.06-.19.172-.262.336-.07.162-.125.389-.163.678a8.79 8.79 0 0 0-.057 1.119c0 .469.019.848.057 1.136m8.572.76c0 .48.082.797.245.957a.783.783 0 0 0 .555.237.706.706 0 0 0 .613-.319c.148-.213.22-.619.22-1.218h2.649c-.022 1.09-.3 1.91-.834 2.458-.534.551-1.41.827-2.631.827-.708 0-1.302-.078-1.78-.237a2.418 2.418 0 0 1-1.16-.785c-.296-.365-.505-.842-.63-1.43-.127-.59-.189-1.302-.189-2.14 0-.85.07-1.57.213-2.158.142-.588.365-1.069.669-1.44a2.625 2.625 0 0 1 1.169-.806c.474-.17 1.044-.254 1.708-.254.588 0 1.103.07 1.545.213.44.14.811.377 1.111.71.3.333.523.768.67 1.307.147.54.22 1.211.22 2.018v.898h-4.363v1.162zm1.446-4.183c-.115-.219-.33-.327-.646-.327-.304 0-.514.108-.628.327-.115.216-.172.56-.172 1.027v.395h1.617v-.395c0-.467-.056-.81-.171-1.027m6.79-1.897v1.078h.034c.38-.87 1.094-1.306 2.14-1.306.327 0 .63.037.906.105.28.072.52.2.728.385.206.185.371.432.491.736.12.303.179.697.179 1.174v6.67h-2.94v-5.836c0-.37-.055-.635-.165-.8-.109-.163-.294-.245-.555-.245-.262 0-.448.082-.557.244-.11.166-.162.432-.162.801v5.836h-2.943v-8.842h2.844zm8.809-2.828v3.809h.033c.25-.47.564-.787.94-.955a2.66 2.66 0 0 1 1.103-.254c.305 0 .597.039.874.113.279.076.524.207.735.393.213.185.381.433.507.744.125.31.189.693.189 1.152v6.668h-2.942v-5.834c0-.371-.054-.637-.165-.8-.109-.165-.293-.247-.554-.247-.262 0-.447.082-.556.246-.11.164-.164.43-.164.801v5.834h-2.942v-11.67h2.942zm8.449 8.908c0 .48.083.797.246.957a.784.784 0 0 0 .555.237.708.708 0 0 0 .613-.319c.148-.213.22-.619.22-1.218h2.647c-.02 1.09-.298 1.91-.833 2.458-.533.551-1.41.827-2.631.827-.707 0-1.301-.078-1.78-.237a2.419 2.419 0 0 1-1.16-.785c-.295-.365-.504-.842-.63-1.43-.125-.59-.19-1.302-.19-2.14 0-.85.072-1.57.214-2.158.143-.588.366-1.069.67-1.44a2.625 2.625 0 0 1 1.169-.806c.474-.17 1.044-.254 1.707-.254.588 0 1.105.07 1.545.213.442.14.812.377 1.11.71.3.333.525.768.672 1.307.147.54.22 1.211.22 2.018v.898h-4.364v1.162zm1.447-4.183c-.115-.219-.329-.327-.646-.327-.304 0-.514.108-.628.327-.115.216-.173.56-.173 1.027v.395h1.618v-.395c0-.467-.056-.81-.172-1.027M26.51 15.247v34.016h13.86v9.2H15.252V15.247zm14.527 17.795v-7.324h3.753v-2.36c0-1.654.17-3.046.515-4.177.34-1.13.906-2.048 1.693-2.754.787-.705 1.827-1.22 3.118-1.543 1.29-.323 2.884-.485 4.781-.485a38.527 38.527 0 0 1 5.205.363v6.841a4.099 4.099 0 0 0-.816-.152 13.53 13.53 0 0 0-.998-.031c-.687 0-1.292.183-1.816.545-.525.363-.787.949-.787 1.755v1.998h4.417v7.324h-4.417v25.422H44.79V33.042h-3.753zm49.632-17.796v43.217H80.137v-4.478h-.12c-.688 1.816-1.616 3.127-2.785 3.933-1.17.808-2.723 1.212-4.66 1.212-3.632 0-6.175-1.432-7.627-4.298-1.453-2.865-2.18-7.344-2.18-13.437 0-3.107.242-5.71.727-7.808.484-2.098 1.158-3.793 2.028-5.084.868-1.292 1.926-2.22 3.177-2.785 1.25-.565 2.623-.848 4.116-.848 1.534 0 2.915.334 4.147 1 1.23.665 2.127 1.845 2.693 3.541h.12V15.246H90.67zM73.782 46.48c.08 1.171.232 2.11.454 2.815.22.706.534 1.201.938 1.483.403.282.928.423 1.574.423.605 0 1.109-.14 1.513-.423.402-.282.717-.777.937-1.483.221-.706.373-1.644.455-2.815.08-1.169.12-2.622.12-4.358 0-1.776-.04-3.248-.12-4.419-.082-1.169-.234-2.108-.455-2.814-.22-.706-.535-1.2-.937-1.483-.404-.282-.908-.424-1.513-.424-.646 0-1.171.142-1.574.424-.404.283-.717.777-.938 1.483-.222.706-.373 1.645-.454 2.814-.081 1.171-.122 2.643-.122 4.42 0 1.735.04 3.188.122 4.357m44.608-31.233l10.533 43.217h-11.985l-1.15-7.566h-8.958l-1.15 7.566H93.876l10.351-43.217h14.164zm-7.143 8.837l-3.086 18.34h6.296l-3.089-18.34h-.12zM18.29 84.614V93.8h3.743v2.482h-6.782V84.614zm8.794 11.196a41.975 41.975 0 0 1-.067-.524h-.033a1.734 1.734 0 0 1-.776.883 2.474 2.474 0 0 1-1.217.293c-.448 0-.826-.057-1.136-.172a1.786 1.786 0 0 1-.76-.514 2.126 2.126 0 0 1-.426-.816 3.96 3.96 0 0 1-.13-1.047c0-.414.041-.773.122-1.078a2.08 2.08 0 0 1 .401-.793c.186-.225.436-.414.753-.572a5.277 5.277 0 0 1 1.176-.399l1.16-.279c.316-.078.54-.19.67-.336.131-.146.196-.355.196-.629 0-.543-.25-.816-.75-.816-.285 0-.49.078-.622.236-.13.158-.202.47-.213.94h-2.549c0-.643.114-1.157.343-1.545.23-.387.512-.686.85-.899a3.063 3.063 0 0 1 1.095-.424 6.053 6.053 0 0 1 1.095-.107c.511 0 .983.04 1.413.123.431.082.801.23 1.112.441.31.213.55.5.72.866.168.365.253.837.253 1.414v4.314c0 .416.016.78.048 1.096.032.316.11.588.23.816h-2.845a2.195 2.195 0 0 1-.113-.472m-.279-1.635c.142-.24.212-.606.212-1.094v-1.064h-.033c-.087.12-.22.193-.399.222-.18.026-.38.088-.597.188-.229.107-.386.252-.474.433-.088.18-.13.416-.13.71s.065.529.195.704c.131.174.305.26.523.26.327 0 .561-.119.703-.36m7.47-9.56v3.824h.032c.153-.459.395-.777.727-.957.333-.18.705-.27 1.12-.27.425 0 .806.077 1.144.222.338.148.621.39.85.736.229.342.405.8.53 1.373.127.572.189 1.283.189 2.13 0 1.647-.196 2.856-.59 3.63-.391.773-1.077 1.162-2.058 1.162-.523 0-.942-.11-1.258-.328-.317-.217-.567-.573-.753-1.063h-.032v1.21h-2.844v-11.67h2.943zm.032 8.434c.022.314.063.57.122.76.06.191.145.324.254.4a.693.693 0 0 0 .408.113.731.731 0 0 0 .426-.113c.109-.076.193-.209.253-.4.06-.19.1-.446.122-.76.022-.317.033-.71.033-1.178 0-.478-.01-.877-.033-1.193a3.46 3.46 0 0 0-.122-.76c-.06-.191-.144-.324-.253-.4a.732.732 0 0 0-.426-.116.694.694 0 0 0-.408.116c-.11.076-.193.209-.254.4a3.46 3.46 0 0 0-.122.76c-.02.316-.032.715-.032 1.193 0 .469.011.861.032 1.178m12.821.522a3.926 3.926 0 0 1-.514 1.48c-.262.43-.641.773-1.136 1.03-.496.255-1.158.384-1.986.384-.861 0-1.541-.12-2.043-.352-.501-.234-.877-.562-1.128-.98a3.757 3.757 0 0 1-.481-1.473 14.154 14.154 0 0 1-.107-1.807c0-.576.04-1.142.123-1.697a3.955 3.955 0 0 1 .515-1.488c.26-.438.64-.787 1.136-1.053.495-.27 1.157-.402 1.985-.402.86 0 1.542.123 2.043.369.5.244.877.578 1.128 1.004.25.424.41.918.482 1.479.07.562.106 1.164.106 1.806 0 .578-.041 1.145-.123 1.7m-4.42-.335c.022.354.065.635.13.842.066.207.15.348.253.424a.66.66 0 0 0 .4.115c.164 0 .3-.039.409-.115.11-.076.194-.217.255-.424.059-.207.1-.488.12-.842.023-.353.034-.81.034-1.365 0-.557-.011-1.014-.033-1.373a4.092 4.092 0 0 0-.121-.85c-.061-.207-.145-.347-.255-.425a.708.708 0 0 0-.408-.114.672.672 0 0 0-.401.114c-.103.078-.187.218-.253.425-.065.207-.108.49-.13.85-.023.36-.033.816-.033 1.373 0 .555.01 1.012.033 1.365m8.432-5.795v1.407h.033c.163-.533.424-.942.784-1.217.36-.28.757-.416 1.193-.416h.474v2.744a4.405 4.405 0 0 0-.735-.064c-.523 0-.928.113-1.218.341-.289.229-.433.639-.433 1.227v4.82h-2.942V87.44h2.844zm-36.938 18.989v-1.977h1.013v-.637c0-.447.046-.824.139-1.129a1.59 1.59 0 0 1 .457-.742c.213-.191.493-.33.842-.418a5.48 5.48 0 0 1 1.292-.13 11.08 11.08 0 0 1 1.405.098v1.847a1.168 1.168 0 0 0-.222-.041 4.757 4.757 0 0 0-.269-.008.842.842 0 0 0-.49.146c-.142.098-.212.256-.212.475v.54h1.193v1.976h-1.193v6.865h-2.942v-6.865h-1.013zm8.89-1.977v5.836c0 .37.055.635.163.799.109.164.295.246.556.246.262 0 .447-.082.555-.246.11-.164.165-.43.165-.799v-5.836h2.94v8.842H24.63v-1.078h-.033c-.37.838-1.085 1.258-2.142 1.258-.327 0-.63-.03-.907-.09a1.594 1.594 0 0 1-.726-.36 1.812 1.812 0 0 1-.49-.736c-.121-.31-.181-.7-.181-1.168v-6.668h2.942zm.327-.77h-2.19v-2.289h2.19v2.29zm2.974 0h-2.19v-2.289h2.19v2.29zm5.23.77v1.406h.033c.163-.535.425-.94.784-1.218a1.91 1.91 0 0 1 1.194-.416h.473v2.746a4.6 4.6 0 0 0-.735-.067c-.523 0-.93.115-1.218.344-.29.229-.432.637-.432 1.225v4.822h-2.943v-8.842h2.844zm-9.047 14.121v11.668h-2.844v-1.209h-.033c-.185.49-.435.844-.751 1.063-.317.219-.736.326-1.259.326-.98 0-1.667-.387-2.06-1.16-.391-.772-.588-1.985-.588-3.627 0-.84.066-1.543.197-2.11.13-.566.313-1.023.548-1.373.233-.347.519-.6.858-.752a2.668 2.668 0 0 1 1.11-.228c.415 0 .788.09 1.12.27.332.18.574.497.727.956h.033v-3.824h2.942zm-4.56 8.434c.022.314.063.568.123.76.06.189.144.322.253.398.109.078.25.115.425.115a.683.683 0 0 0 .409-.115c.108-.076.193-.209.253-.398.059-.192.1-.446.122-.76.022-.317.033-.71.033-1.176 0-.482-.01-.879-.033-1.195a3.473 3.473 0 0 0-.122-.76c-.06-.191-.145-.324-.253-.4a.697.697 0 0 0-.41-.116.726.726 0 0 0-.424.116c-.11.076-.193.209-.253.4-.06.19-.101.443-.123.76-.022.316-.033.713-.033 1.195 0 .467.01.86.033 1.176m8.988-6.244h-2.942v-2.19h2.942v2.19zm0 9.478h-2.942V121.4h2.942v8.842zm8.711-8.841v8.695c0 .578-.094 1.066-.286 1.47a2.45 2.45 0 0 1-.784.963 3.185 3.185 0 0 1-1.168.516 6.447 6.447 0 0 1-1.455.156c-.469 0-.91-.037-1.324-.105a3.165 3.165 0 0 1-1.088-.385 2.022 2.022 0 0 1-.735-.76c-.179-.322-.274-.732-.285-1.234h2.647c0 .219.065.386.197.508.13.119.31.177.539.177.109 0 .218-.01.326-.033a.56.56 0 0 0 .286-.144.872.872 0 0 0 .205-.328c.054-.143.082-.338.082-.588v-1.635h-.033c-.186.512-.464.86-.834 1.047a2.584 2.584 0 0 1-1.16.277c-.295 0-.594-.055-.899-.166-.304-.107-.583-.318-.834-.635-.25-.316-.455-.76-.613-1.334-.158-.568-.237-1.314-.237-2.228 0-.852.063-1.563.188-2.133.125-.572.305-1.031.54-1.373.235-.344.52-.59.859-.736a2.83 2.83 0 0 1 1.142-.221c.414 0 .802.11 1.16.326.36.219.622.596.786 1.129h.033v-1.227h2.745zm-4.453 5.32c.038.289.092.515.163.677.072.164.158.274.261.329.104.052.228.08.368.08a.77.77 0 0 0 .352-.08c.102-.055.19-.164.263-.329.07-.162.12-.388.153-.677.033-.287.05-.666.05-1.137 0-.457-.016-.83-.05-1.117a2.513 2.513 0 0 0-.154-.68c-.073-.164-.16-.275-.262-.336a.707.707 0 0 0-.352-.09.739.739 0 0 0-.368.09c-.102.06-.19.172-.26.336-.071.164-.126.39-.164.68a8.84 8.84 0 0 0-.057 1.117c0 .47.019.85.057 1.137m8.882-5.957h-2.942v-2.19h2.942v2.19zm0 9.478h-2.942V121.4h2.942v8.842zm1.863-8.841v-2.598h2.942v2.597h1.16v1.979h-1.16v4.217c0 .25.058.427.171.531.115.103.292.154.531.154h.458v1.961c-.272 0-.545.01-.816.026-.273.015-.535.025-.786.025-.447 0-.828-.02-1.144-.059-.315-.037-.574-.132-.776-.287-.202-.152-.348-.377-.44-.677-.094-.3-.14-.694-.14-1.184v-4.707h-.98v-1.979h.98zm9.12 8.367a34.089 34.089 0 0 1-.066-.522h-.033c-.162.39-.422.686-.776.883a2.48 2.48 0 0 1-1.218.293c-.447 0-.825-.057-1.135-.17a1.807 1.807 0 0 1-.76-.516 2.106 2.106 0 0 1-.426-.818 3.936 3.936 0 0 1-.13-1.045c0-.414.041-.773.122-1.078a2.05 2.05 0 0 1 .401-.793 2.3 2.3 0 0 1 .752-.572 5.41 5.41 0 0 1 1.176-.4l1.16-.278c.317-.076.54-.19.672-.336.13-.148.195-.355.195-.629 0-.545-.25-.818-.751-.818-.284 0-.49.08-.621.238-.131.158-.203.47-.213.94h-2.55c0-.643.115-1.157.345-1.545a2.59 2.59 0 0 1 .849-.899 3.07 3.07 0 0 1 1.095-.426c.392-.07.756-.105 1.095-.105.51 0 .983.04 1.413.123.43.082.8.228 1.112.441.31.213.55.502.719.866.169.365.254.835.254 1.414v4.314c0 .414.016.78.048 1.094.032.318.109.59.23.818H51.24a2.241 2.241 0 0 1-.114-.474m-.278-1.633c.142-.24.212-.606.212-1.096v-1.062h-.033c-.087.12-.22.193-.4.222-.18.026-.379.088-.596.186-.23.111-.386.254-.474.435-.088.178-.131.416-.131.71s.066.529.196.702c.13.174.305.262.523.262.327 0 .561-.119.703-.36m4.528-9.56h2.942v11.668h-2.942zm7.06 8.907c0 .48.083.798.246.956a.775.775 0 0 0 .555.237.707.707 0 0 0 .613-.319c.148-.212.22-.619.22-1.218h2.649c-.022 1.09-.3 1.91-.834 2.459-.534.55-1.412.828-2.633.828-.708 0-1.301-.08-1.78-.238a2.414 2.414 0 0 1-1.16-.786c-.294-.365-.504-.841-.63-1.43-.125-.587-.188-1.3-.188-2.14 0-.85.07-1.568.213-2.158.142-.588.365-1.067.67-1.438a2.62 2.62 0 0 1 1.167-.808c.475-.168 1.044-.254 1.708-.254.59 0 1.104.072 1.547.213.44.14.81.379 1.11.71.3.333.523.768.67 1.307.148.54.22 1.213.22 2.02v.898h-4.363v1.16zm1.447-4.184c-.115-.217-.33-.326-.646-.326-.304 0-.515.11-.629.326-.114.217-.172.56-.172 1.03v.392h1.618v-.393c0-.469-.056-.812-.171-1.03m-44.083 12.2l2.844 11.67h-3.236l-.31-2.043h-2.42l-.31 2.043H13.18l2.795-11.67H19.8zm-1.928 2.387l-.833 4.951h1.7l-.834-4.951h-.033zm8.205.441v1.078h.031c.383-.87 1.096-1.306 2.141-1.306.328 0 .63.037.908.105.278.072.52.2.727.385.206.185.37.432.49.736.12.303.18.697.18 1.174v6.67h-2.94v-5.836c0-.37-.056-.635-.165-.8-.109-.163-.295-.245-.555-.245-.263 0-.448.082-.557.244-.108.166-.163.432-.163.801v5.836h-2.942v-8.842h2.845zm13.139 0v8.696c0 .576-.095 1.066-.286 1.468-.19.405-.452.725-.784.965a3.187 3.187 0 0 1-1.169.516 6.444 6.444 0 0 1-1.454.156c-.469 0-.911-.037-1.324-.107a3.12 3.12 0 0 1-1.087-.385 1.994 1.994 0 0 1-.736-.76c-.18-.322-.275-.732-.285-1.234h2.647c0 .22.065.388.196.507.13.12.311.18.54.18.108 0 .218-.011.327-.033a.576.576 0 0 0 .285-.146.86.86 0 0 0 .205-.327c.054-.144.081-.338.081-.588v-1.634h-.032c-.186.511-.464.859-.834 1.045-.37.185-.758.279-1.16.279-.294 0-.594-.055-.9-.166-.304-.108-.582-.32-.833-.635-.251-.316-.455-.762-.612-1.334-.16-.572-.237-1.314-.237-2.23 0-.85.062-1.56.187-2.133.125-.57.306-1.03.54-1.373a2.01 2.01 0 0 1 .858-.735c.338-.146.719-.22 1.143-.22.415 0 .802.11 1.16.326.361.219.622.596.786 1.127h.033v-1.225h2.745zm-4.453 5.32c.038.29.092.516.163.678.071.164.158.274.262.326a.775.775 0 0 0 .367.083.74.74 0 0 0 .352-.083c.102-.052.19-.162.262-.326.07-.162.122-.388.154-.678.033-.288.05-.667.05-1.136 0-.457-.017-.83-.05-1.12a2.444 2.444 0 0 0-.154-.677c-.073-.164-.16-.275-.262-.336a.705.705 0 0 0-.352-.09.733.733 0 0 0-.367.09c-.104.06-.19.172-.262.336a2.595 2.595 0 0 0-.163.678 8.685 8.685 0 0 0-.058 1.119c0 .469.02.848.058 1.136m8.571.76c0 .48.083.797.245.957a.785.785 0 0 0 .556.237.708.708 0 0 0 .613-.319c.148-.213.22-.619.22-1.218h2.648c-.021 1.09-.3 1.91-.833 2.458-.534.551-1.412.827-2.632.827-.708 0-1.302-.078-1.78-.237a2.423 2.423 0 0 1-1.16-.785c-.295-.365-.505-.842-.63-1.43-.126-.59-.189-1.302-.189-2.14 0-.85.07-1.57.213-2.158.142-.588.365-1.069.67-1.44a2.625 2.625 0 0 1 1.169-.806c.474-.17 1.043-.254 1.707-.254.589 0 1.104.07 1.546.213.44.14.81.377 1.111.71.299.333.522.768.67 1.307.147.54.22 1.211.22 2.018v.898h-4.364v1.162zm1.447-4.183c-.115-.219-.33-.327-.646-.327-.304 0-.515.108-.63.327-.113.216-.171.56-.171 1.027v.395h1.618v-.395c0-.467-.056-.81-.171-1.027m3.995-4.725h2.942v11.67h-2.942zm57.724 2.191h-2.942v-2.189h2.942v2.19zm0 9.479h-2.942v-8.842h2.942v8.842zm1.862-8.842v-2.597h2.943v2.597h1.16v1.979h-1.16v4.215c0 .251.056.427.17.533.116.101.294.154.533.154h.457v1.961c-.273 0-.545.01-.817.025-.274.016-.535.026-.786.026-.445 0-.827-.022-1.143-.059-.317-.039-.574-.133-.777-.287-.202-.152-.348-.377-.44-.678-.094-.298-.14-.695-.14-1.183v-4.707h-.98v-1.979h.98zm7.615 6.08c0 .48.084.797.247.957a.784.784 0 0 0 .554.237.708.708 0 0 0 .614-.319c.147-.213.22-.619.22-1.218h2.649c-.023 1.09-.3 1.91-.834 2.458-.533.551-1.411.827-2.632.827-.708 0-1.302-.078-1.78-.237a2.42 2.42 0 0 1-1.16-.785c-.294-.365-.504-.842-.63-1.43-.125-.59-.189-1.302-.189-2.14 0-.85.07-1.57.214-2.158.142-.588.364-1.069.669-1.44a2.622 2.622 0 0 1 1.168-.806c.475-.17 1.045-.254 1.708-.254.589 0 1.104.07 1.546.213.44.14.81.377 1.11.71.3.333.524.768.67 1.307.148.54.222 1.211.222 2.018v.898h-4.366v1.162zm1.448-4.183c-.114-.219-.33-.327-.647-.327-.303 0-.513.108-.628.327-.115.216-.173.56-.173 1.027v.395h1.619v-.395c0-.467-.057-.81-.171-1.027m6.79-1.897v1.078h.033c.38-.87 1.095-1.306 2.14-1.306.328 0 .63.037.907.105.28.072.522.2.727.385.207.185.372.432.492.736.12.303.18.697.18 1.174v6.67h-2.942v-5.836c0-.37-.055-.635-.165-.8-.109-.163-.294-.245-.555-.245-.261 0-.447.082-.556.244-.108.166-.162.432-.162.801v5.836h-2.942v-8.842h2.843z"/><path d="M0 0v162.425h162.425V0H0zm158.098 69.348H4.329V4.327h153.769v65.02zM4.328 73.677h153.769v84.42H4.328v-84.42z"/></svg>
