<svg xmlns="http://www.w3.org/2000/svg" width="381" height="560" viewBox="0 0 381 560"><style>.st0,.st2{fill:none;stroke:#737373;stroke-width:2;stroke-linecap:square}.st2{stroke:#9b9b9b}.st3{fill-rule:evenodd;clip-rule:evenodd;fill:#9b9b9b}.st6{font-family:Source Sans Pro,Arial,sans-serif}.st7{font-size:20px}.st9{fill:#fff}.st10{font-size:13px}.st20{fill:#737373}</style><path class="st0" d="M315 230H210m105 0v122"/><path d="M200 230l15-4v8l-15-4z" fill-rule="evenodd" clip-rule="evenodd" fill="#737373"/><path class="st0" d="M315 535H199m116-124v124"/><path class="st2" d="M99 49v21"/><path class="st3" d="M99 80l-4-11h8l-4 11z"/><path class="st2" d="M99 149v21"/><path class="st3" d="M99 180l-4-11h8l-4 11z"/><path class="st2" d="M99 279v21"/><path class="st3" d="M99 310l-4-11h8l-4 11z"/><path class="st2" d="M99 379v21"/><path class="st3" d="M99 410l-4-11h8l-4 11z"/><path class="st2" d="M99 479v21"/><path class="st3" d="M99 510l-4-11h8l-4 11z"/><path d="M21 1h158c11 0 20 9 20 20v8c0 11-9 20-20 20H21C10 49 1 40 1 29v-8C1 10 10 1 21 1z" fill="none" stroke="#05668d" stroke-width="2"/><text transform="translate(23.43 31)" class="st6 st7" fill="#00658f">Incoming Request</text><path d="M-30-20h160c11 0 20 9 20 20v30c0 11-9 20-20 20H-30c-11 0-20-9-20-20V0c0-11 9-20 20-20z" fill-rule="evenodd" clip-rule="evenodd" fill="#05668d" transform="translate(50 100)"/><text transform="translate(41.39 111)" class="st9 st6 st7">nuxtServerInit</text><text transform="translate(66.144 132)" class="st9 st6 st10">Store action</text><path d="M-30-20h160c11 0 20 9 20 20v60c0 11-9 20-20 20H-30c-11 0-20-9-20-20V0c0-11 9-20 20-20z" fill-rule="evenodd" clip-rule="evenodd" fill="#028090" transform="translate(50 200)"/><text transform="translate(51.424 211)" class="st9 st6 st7">middleware</text><text transform="translate(18 232)" class="st9 st6 st10">1. nuxt.config.js</text><text transform="translate(18 248)" class="st9 st6 st10">2. matching layout</text><text transform="translate(18 264)" class="st9 st6 st10">3. matching page &amp; children</text><path d="M-30-20h160c11 0 20 9 20 20v30c0 11-9 20-20 20H-30c-11 0-20-9-20-20V0c0-11 9-20 20-20z" fill-rule="evenodd" clip-rule="evenodd" fill="#00a896" transform="translate(50 330)"/><text transform="translate(60.928 341)" class="st9 st6 st7">validate()</text><text transform="translate(51.405 362)" class="st9 st6 st10">Pages &amp; children</text><path d="M-30-20h160c11 0 20 9 20 20v30c0 11-9 20-20 20H-30c-11 0-20-9-20-20V0c0-11 9-20 20-20z" fill-rule="evenodd" clip-rule="evenodd" fill="#02c39a" transform="translate(50 430)"/><text transform="translate(15.975 441)" class="st9 st6" font-size="18">asyncData() &amp; fetch()</text><text transform="translate(51.542 462)" class="st9 st6 st10">Pages &amp; children</text><g><path d="M21 511h158c11 0 20 9 20 20v8c0 11-9 20-20 20H21c-11 0-20-9-20-20v-8c0-11 9-20 20-20z" fill="none" stroke="#5ca4a9" stroke-width="2"/><text transform="translate(68.842 541)" class="st6 st7" fill="#5ca4a9">Render</text></g><g><path d="M272 353h88c11 0 20 9 20 20v18c0 11-9 20-20 20h-88c-11 0-20-9-20-20v-18c0-11 9-20 20-20z" fill="none" stroke="#737373" stroke-width="2"/><text transform="translate(282.452 380)" class="st20 st6" font-size="17">Navigate</text><text transform="translate(284.626 397)" class="st20 st6 st10">&lt;nuxt-link&gt;</text></g></svg>
