<svg xmlns="http://www.w3.org/2000/svg" width="800" height="400" viewBox="0 0 800 400"><g font-family="Source Sans Pro, Arial, sans-serif" font-size="21" text-anchor="middle"><path fill="#41B883" d="M0 0h800v400H0z"/><path fill="#3B8070" d="M15 50h770v335H15z"/><path fill="#35495E" d="M30 100h740v270H30z"/><path fill="#495B6E" d="M45 235h350v120H45zM405 300h350v55H405zM405 235h350v55H405z"/><g fill="#EEF0F1"><text x="400" y="32"><tspan>Document –</tspan> <tspan font-size="19">HTML file</tspan></text><text x="400" y="82"><tspan>Layout –</tspan> <tspan font-size="17">Vue component + Nuxt options: middleware and head</tspan></text><text x="400" y="132"><tspan>Page –</tspan> <tspan font-size="17">Vue component supercharges with Nuxt options</tspan></text><g text-anchor="start"><text><tspan x="56" y="178">•</tspan> <tspan x="79" y="178" font-size="17">asyncData</tspan></text><text><tspan x="56" y="200">•</tspan> <tspan x="79" y="200" font-size="17">middleware</tspan></text><text><tspan x="231" y="178">•</tspan> <tspan x="254" y="178" font-size="17">fetch</tspan></text><text><tspan x="231" y="200">•</tspan> <tspan x="254" y="200" font-size="17">scrollToTop</tspan></text><text><tspan x="410" y="178">•</tspan> <tspan x="433" y="178" font-size="17">head</tspan></text><text><tspan x="410" y="200">•</tspan> <tspan x="433" y="200" font-size="17">transition</tspan></text><text><tspan x="589" y="178">•</tspan> <tspan x="612" y="178" font-size="17">layout</tspan></text><text><tspan x="589" y="200">•</tspan> <tspan x="612" y="200" font-size="17">validate</tspan></text></g><text><tspan x="220" y="287">Optional – Page Child</tspan></text><text font-size="15"><tspan x="220" y="312">Vue component supercharges with Nuxt options</tspan></text><text x="580" y="270"><tspan>Optional –</tspan> <tspan font-size="15">Vue Component + Nuxt option: head</tspan></text><text x="580" y="335"><tspan>Optional –</tspan> <tspan font-size="15">Vue Component + Nuxt option: head</tspan></text></g></g></svg>
